# xmcd
#
# Track frame offsets: 
#        150
#        19252
#        36274
#        52442
#        71801
#        92829
#        108834
#        125407
#        141449
#        169224
#        185977
#        203697
#
# Disc length: 2949 seconds
#
# Revision: 1
# Processed by: cddbd v1.5.2PL0 Copyright (c) Steve Scherf et al.
# Submitted via: ExactAudioCopy v1.0b3
#
DISCID=bd0b830c
DTITLE=Brantley Gilbert - Read Me My Rights
DYEAR=2015
DGENRE=Country
TTITLE0=Hell on Wheels
TTITLE1=Kick It in the Sticks
TTITLE2=Country Must Be Country Wide
TTITLE3=Take It Outside
TTITLE4=Dirt Road Anthem (Revisited) (feat. Colt Ford)
TTITLE5=If You Want a Bad Boy
TTITLE6=Bottoms Up
TTITLE7=My Baby's Guns 'n' Roses
TTITLE8=Lights of My Hometown
TTITLE9=One Hell of an Amen
TTITLE10=Read Me My Rights
TTITLE11=G.R.I.T.S.
EXTD=YEAR: 2015
EXTT0=
EXTT1=
EXTT2=
EXTT3=
EXTT4=
EXTT5=
EXTT6=
EXTT7=
EXTT8=
EXTT9=
EXTT10=
EXTT11=
PLAYORDER=
